HIERARCHY
ROOT root     
{
	OFFSET 0.0000 0.0000 0.0000
	CHANNELS 6 Xposition Yposition Zposition Zrotation Yrotation Xrotation
	JOINT pelvis   
	{
		OFFSET 0.0000 0.0000 0.0000
		CHANNELS 3 Zrotation Yrotation Xrotation
		JOINT thorax   
		{
			OFFSET 0.0000 23.0750 -5.0000
			CHANNELS 3 Zrotation Yrotation Xrotation
			JOINT rclavicle
			{
				OFFSET 0.0000 28.0009 0.0000
				CHANNELS 3 Zrotation Yrotation Xrotation
				JOINT rhumerus 
				{
					OFFSET -18.5725 5.5939 0.0000
					CHANNELS 3 Zrotation Yrotation Xrotation
					JOINT rradius  
					{
						OFFSET -24.8459 0.0000 0.0000
						CHANNELS 3 Zrotation Yrotation Xrotation
						JOINT rhand    
						{
							OFFSET -24.5477 0.0000 0.0000
							CHANNELS 3 Zrotation Yrotation Xrotation
							End Site
							{
								OFFSET -8.1826 0.0000 0.0000
							}
						}
					}
				}
			}
			JOINT lclavicle
			{
				OFFSET 0.0000 28.0009 0.0000
				CHANNELS 3 Zrotation Yrotation Xrotation
				JOINT lhumerus 
				{
					OFFSET 18.5725 5.5939 0.0000
					CHANNELS 3 Zrotation Yrotation Xrotation
					JOINT lradius  
					{
						OFFSET 24.8459 0.0000 0.0000
						CHANNELS 3 Zrotation Yrotation Xrotation
						JOINT lhand    
						{
							OFFSET 24.5477 0.0000 0.0000
							CHANNELS 3 Zrotation Yrotation Xrotation
							End Site
							{
								OFFSET 8.1826 0.0000 0.0000
							}
						}
					}
				}
			}
			JOINT head     
			{
				OFFSET 0.0000 35.2030 0.0000
				CHANNELS 3 Zrotation Yrotation Xrotation
				End Site
				{
					OFFSET 0.0000 11.7343 0.0000
				}
			}
		}
		JOINT rfemur   
		{
			OFFSET -8.2817 0.0000 0.0000
			CHANNELS 3 Zrotation Yrotation Xrotation
			JOINT rtibia   
			{
				OFFSET 0.0000 -43.3627 0.0000
				CHANNELS 3 Zrotation Yrotation Xrotation
				JOINT rfoot    
				{
					OFFSET 0.0000 -38.2947 0.0000
					CHANNELS 3 Zrotation Yrotation Xrotation
					JOINT rtoes    
					{
						OFFSET 0.0000 0.0000 16.6054
						CHANNELS 3 Zrotation Yrotation Xrotation
						End Site
						{
							OFFSET 0.0000 0.0000 5.5351
						}
					}
				}
			}
		}
		JOINT lfemur   
		{
			OFFSET 8.2817 0.0000 0.0000
			CHANNELS 3 Zrotation Yrotation Xrotation
			JOINT ltibia   
			{
				OFFSET 0.0000 -43.3627 0.0000
				CHANNELS 3 Zrotation Yrotation Xrotation
				JOINT lfoot    
				{
					OFFSET 0.0000 -38.2947 0.0000
					CHANNELS 3 Zrotation Yrotation Xrotation
					JOINT ltoes    
					{
						OFFSET 0.0000 0.0000 16.6054
						CHANNELS 3 Zrotation Yrotation Xrotation
						End Site
						{
							OFFSET 0.0000 0.0000 5.5351
						}
					}
				}
			}
		}
	}
}
MOTION
Frames: 21
Frame Time: .0333333
-37.032 73.202 -6.0656 20.816 86.9466 44.9723 0 -0 0 10.2601 -12.192 13.9159 18.0082 -14.916 -0.000136239 54.1418 -20.9407 8.20197 -1.76643e-06 79.2728 -1.46324e-06 -6.13392 4.65071 -0.249296 -14.0254 18.3268 -8.78932e-05 -42.78 -4.56249 7.59513 -180 -85.0965 180 -6.26932 6.31554 -0.346205 2.11625 0.6265 -18.8854 11.0975 -9.21982 -72.5663 -0 -0 53.5326 -1.41363e-06 -5.54529 2.09193 -0.202993 4.72438e-07 -10.8055 -1.19904 13.3707 -9.38669 -0 -0 53.3664 1.57854e-06 1.61864 2.69357 0.0760993 -5.28565e-07 -87.8927 
-35.813 73.087 -5.9889 18.1762 86.7555 42.4269 0 -0 0 10.9238 -12.1477 13.7909 18.0663 -14.7802 -9.11784e-05 53.9709 -20.3105 7.88152 -1.2413e-06 79.2016 -1.02691e-06 -6.2617 4.57907 -0.250603 -14.0615 18.2739 1.95411e-05 -43.4999 -3.46535 8.15498 -180 -85.8843 180 -6.41281 6.36887 -0.357203 1.78118 0.705902 -18.8619 11.2498 -9.30589 -72.5352 -0 -0 54.9755 3.6337e-07 -5.19754 0.665512 -0.0604994 -5.22056e-08 -6.42562 -1.07709 12.9341 -8.70897 -0 -0 53.0347 -7.67697e-07 1.5734 4.16299 0.1143 6.50559e-07 -87.8348 
-34.62 72.981 -5.908 16.2033 86.6099 40.5674 0 -0 0 11.561 -12.0898 13.64 18.1409 -14.6649 0.000101751 53.8167 -19.6798 7.54601 -1.74436e-06 79.1251 -1.44114e-06 -6.38526 4.50542 -0.251399 -14.053 18.1894 0.00011075 -44.2901 -2.42124 8.73778 -180 -86.8186 180 -6.53959 6.44732 -0.368693 1.48341 0.744997 -18.7883 11.3391 -9.36003 -72.4686 -0 -0 56.3351 -5.53021e-07 -4.97748 -0.824299 0.0717999 4.23301e-09 -2.75528 -0.998023 12.435 -8.16289 -0 -0 52.8159 -1.67714e-07 1.58419 5.73303 0.1583 -2.69749e-08 -87.4442 
-33.457 72.886 -5.8218 14.6675 86.4696 39.1872 0 -0 0 12.1758 -12.0111 13.4622 18.2328 -14.5637 8.47969e-05 53.6774 -19.0528 7.19649 -1.01166e-06 79.0552 -1.22607e-06 -6.50499 4.43597 -0.252204 -14.0132 18.0765 9.86381e-06 -45.1318 -1.42794 9.32427 180 -87.8633 180 -6.64718 6.54936 -0.380805 1.22114 0.746508 -18.6825 11.358 -9.3583 -72.3845 -0 -0 57.6092 1.55885e-06 -4.88749 -2.28834 0.195595 1.45531e-10 -0.0994995 -0.955641 11.8929 -7.7763 -0 -0 52.7337 7.72831e-07 1.64453 7.37335 0.211099 4.6177e-06 -86.6019 
-32.326 72.806 -5.7303 13.3114 86.3716 38.0087 0 -0 0 12.7711 -11.9033 13.2766 18.3407 -14.477 -8.41468e-05 53.5513 -18.4242 6.83049 -1.21987e-06 78.995 -1.00545e-06 -6.61835 4.36739 -0.252602 -13.959 17.9352 0.000100175 -46.0042 -0.491115 9.90372 -180 -88.9941 180 -6.7225 6.67057 -0.392208 0.989496 0.708702 -18.5655 11.315 -9.29708 -72.2865 -0 -0 58.8082 3.91048e-09 -4.91018 -3.70112 -179.682 -1.94817e-07 -1.77542 -0.937412 11.3308 -7.55379 -0 -0 52.8134 4.95498e-06 1.74109 9.04386 0.273808 4.58618e-06 -85.1042 
-31.23 72.741 -5.632 11.9675 86.2774 36.878 0 -0 0 13.3522 -11.7637 13.0889 18.4642 -14.3942 4.31577e-05 53.4366 -17.7886 6.45115 -1.00055e-06 78.9407 -1.215e-06 -6.72645 4.30248 -0.252995 -13.9092 17.7717 -0.000151071 -46.8878 0.393297 10.462 1.40575e-05 -90 -1.40114e-05 -6.75679 6.80134 -0.401996 0.787197 0.637496 -18.4519 11.2202 -9.16728 -72.1785 -0 -0 59.9257 -2.15978e-06 -5.0346 -5.0135 -179.559 -2.19019e-07 -2.85767 -0.929221 10.7732 -7.50983 -0 -0 53.0763 1.25958e-06 1.87353 10.6764 0.347206 -2.59962e-06 -82.7926 
-30.171 72.696 -5.5259 10.5741 86.1902 35.7319 0 -0 0 13.9109 -11.5977 12.9122 18.6029 -14.3057 6.0291e-05 53.332 -17.1405 6.06724 -0 78.8981 -0 -6.83323 4.24924 -0.253803 -13.8731 17.5888 7.21449e-05 -47.763 1.23404 10.982 0 -88.5576 0 -6.74933 6.93112 -0.409194 0.618788 0.543604 -18.3577 11.086 -8.97165 -72.0653 -0 -0 60.95 5.55355e-06 -5.24595 -6.19202 -179.433 -1.37877e-07 -3.18645 -0.922979 10.2401 -7.65303 -0 -0 53.5357 1.11896e-05 2.05731 12.1865 0.434398 -8.14173e-07 -79.6356 
-29.15 72.67 -5.4117 9.05105 86.1263 34.4717 0 -0 0 14.4455 -11.409 12.7618 18.7577 -14.2047 9.10664e-06 53.2339 -16.4742 5.68023 -1.70714e-06 78.8635 -1.40385e-06 -6.94057 4.20448 -0.255096 -13.8635 17.3936 -6.39503e-05 -48.6188 2.02898 11.4603 -3.12354e-06 -87.2966 3.2745e-06 -6.69175 7.04761 -0.412507 0.486899 0.431596 -18.2915 10.9299 -8.72229 -71.9412 -0 -0 61.8751 6.95664e-06 -5.51996 -7.23782 -179.302 1.58091e-07 -2.99387 -0.90731 9.75234 -7.97754 -0 -0 54.1987 -1.0127e-05 2.30335 13.4903 0.537608 -5.62186e-06 -75.5861 
-28.162 72.664 -5.2886 7.38502 86.0673 33.0822 0 -0 0 14.9497 -11.205 12.6542 18.9271 -14.0842 3.74158e-05 53.1406 -15.7841 5.29728 -1.39884e-06 78.8289 -1.70213e-06 -7.05389 4.16886 -0.257096 -13.8843 17.1908 7.85912e-05 -49.4415 2.7783 11.8942 3.17557e-06 -86.0163 -2.962e-06 -6.58172 7.14007 -0.4111 0.396207 0.304795 -18.2576 10.7708 -8.43753 -71.7937 -0 -0 62.6963 -3.2548e-06 -5.83395 -8.16018 -179.169 -2.72728e-07 -2.46777 -0.872411 9.32714 -8.47438 -0 -0 55.0628 1.06579e-05 2.63044 14.518 0.659808 -1.88389e-06 -70.771 
-27.206 72.679 -5.1565 5.61879 86.0199 31.5945 0 -0 0 15.4173 -10.9937 12.6006 19.1113 -13.9405 -5.79475e-05 53.0542 -15.0677 4.92148 -1.69691e-06 78.789 -1.3936e-06 -7.17844 4.14122 -0.259902 -13.9365 16.9875 0.000103966 -50.2252 3.48116 12.2876 2.97461e-06 -84.7322 -2.71292e-06 -6.42089 7.19981 -0.404397 0.352908 0.1651 -18.2534 10.6255 -8.1389 -71.6133 -0 -0 63.4043 4.56112e-06 -6.16674 -8.97714 -179.034 7.05792e-07 -1.77186 -0.813499 8.97515 -9.13135 -0 -0 56.119 1.80267e-05 3.06031 15.2186 0.804005 6.15162e-06 -65.4467 
-26.278 72.713 -5.0176 3.93218 85.9636 30.1791 0 -0 0 15.823 -10.7856 12.6121 19.3114 -13.7679 4.53891e-05 52.9769 -14.3239 4.55787 -0 78.7414 -0 -7.32 4.12122 -0.263697 -14.0123 16.7916 -0.000100458 -50.969 4.13135 12.6426 2.41994e-06 -83.4485 -2.15808e-06 -6.21894 7.22226 -0.392901 0.367198 0.0132989 -18.2732 10.4966 -7.85232 -71.3874 -0 -0 64.0036 4.77829e-06 -6.49548 -9.71942 -178.899 1.38301e-08 -1.0712 -0.741707 8.69647 -9.92776 -0 -0 57.3414 -7.25255e-06 3.61863 15.5771 0.972901 5.11159e-06 -60.0054 
-25.375 72.766 -4.8703 2.24612 85.9388 28.7447 0 -0 0 16.1823 -10.5831 12.6864 19.522 -13.5683 -5.70861e-05 52.9117 -13.5574 4.20574 -0 78.6906 -0 -7.48333 4.10275 -0.268399 -14.1094 16.6031 3.63862e-05 -51.6704 4.72646 12.9722 2.36356e-06 -82.1771 -2.06101e-06 -5.9775 7.20633 -0.376702 0.435697 -0.159098 -18.3055 10.4037 -7.59156 -71.1098 -0 -0 64.4868 5.62993e-06 -6.80993 -10.4091 -178.764 1.32216e-08 -0.4555 -0.645503 8.49167 -10.8566 -0 -0 58.7143 -6.67781e-06 4.31443 15.6058 1.16271 -1.18809e-06 -54.7971 
-24.494 72.835 -4.7175 0.757467 85.9287 27.4834 0 -0 0 16.4744 -10.3912 12.8259 19.7386 -13.3421 6.1401e-05 52.8611 -12.7729 3.86777 -0 78.6268 -0 -7.67219 4.08538 -0.274097 -14.2184 16.4265 -0.000132149 -52.3341 5.26267 13.2836 2.05442e-06 -80.9029 -1.75161e-06 -5.71226 7.15619 -0.357494 0.563099 -0.356601 -18.3369 10.3399 -7.37457 -70.7733 -0 -0 64.8639 5.10068e-07 -7.09725 -11.0757 -178.63 6.26254e-09 -0.0148005 -0.541601 8.34786 -11.9008 -0 -0 60.2069 -1.49627e-05 5.15912 15.3386 1.36825 2.38757e-05 -50.166 
-23.632 72.921 -4.5599 -0.547741 85.9538 26.3775 0 -0 0 16.7049 -10.2082 13.0179 19.9561 -13.0947 -1.00415e-05 52.8339 -11.9801 3.54311 -2.84745e-06 78.5645 -3.00447e-06 -7.88845 4.06565 -0.2804 -14.3306 16.2618 -7.22614e-05 -52.9624 5.7409 13.5869 -1.51868e-06 -79.6272 1.82179e-06 -5.43302 7.07979 -0.336304 0.743808 -0.588398 -18.3545 10.3083 -7.2118 -70.3791 -0 -0 65.1407 1.79776e-05 -7.35439 -11.7376 1.50395 -1.61262e-07 -0.216598 -0.433137 8.25536 -13.0558 -0 -0 61.803 1.12239e-05 6.14554 14.809 1.57637 -7.82958e-06 -46.2013 
-22.786 73.019 -4.4044 -1.26841 85.964 25.837 0 -0 0 16.838 -10.0353 13.2674 20.1721 -12.8297 7.77391e-05 52.8319 -11.1815 3.23703 -2.82861e-06 78.4865 -2.98566e-06 -8.13133 4.04526 -0.287695 -14.4295 16.1178 -4.77421e-05 -53.5649 6.15169 13.8859 1.15916e-06 -78.3555 -9.44613e-07 -5.16441 6.98814 -0.315499 0.980593 -0.858195 -18.3467 10.2811 -7.11714 -69.9301 -0 -0 65.3386 3.58822e-05 -7.57175 -12.4123 1.63652 2.37663e-08 -0.236894 -0.357186 8.19207 -14.2981 -0 -0 63.4638 2.20548e-05 7.27429 14.0828 1.77893 -2.52475e-05 -43.2082 
-21.958 73.131 -4.2476 -1.72037 86.0261 25.5358 0 -0 0 16.9156 -9.86 13.5455 20.3715 -12.5538 6.08238e-05 52.8614 -10.3943 2.94451 -1.64764e-06 78.4201 -1.34424e-06 -8.39716 4.01828 -0.295091 -14.5229 15.9805 -9.34688e-05 -54.1367 6.51296 14.1874 -4.01149e-07 -77.0802 9.88048e-07 -4.90321 6.89226 -0.2954 1.25021 -1.17658 -18.3 10.2733 -7.07653 -69.4403 -0 -0 65.4554 9.2706e-06 -7.76281 -13.0944 1.76902 -4.05116e-08 -0.0867001 -0.292309 8.15754 -15.6486 -0 -0 65.1881 2.518e-05 8.50325 13.1676 1.95061 9.34013e-06 -40.779 
-21.144 73.253 -4.0952 -1.6153 86.0957 25.7772 0 -0 0 16.9149 -9.67694 13.8515 20.5523 -12.2738 -0.000115853 52.9229 -9.61943 2.67197 -9.44773e-07 78.3563 -1.15932e-06 -8.67914 3.98779 -0.302702 -14.5979 15.8582 4.75032e-05 -54.6862 6.82062 14.494 -3.38932e-07 -75.8145 9.26576e-07 -4.66951 6.80349 -0.277701 1.54585 -1.54433 -18.2115 10.2577 -7.09093 -68.9173 -0 -0 65.5164 3.71717e-05 -7.92665 -13.7805 -178.101 -3.57274e-08 -0.146205 -0.267916 8.13497 -17.0925 -0 -0 66.943 3.48494e-05 9.81347 12.1311 2.08172 1.37155e-06 -39.0677 
-20.347 73.387 -3.9473 -1.03507 86.1696 26.4895 0 -0 0 16.854 -9.47586 14.1657 20.7005 -11.9956 -1.64457e-05 53.0183 -8.86555 2.42089 -0 78.3088 -0 -8.9679 3.95308 -0.310098 -14.6609 15.7451 -3.10766e-05 -55.2109 7.08952 14.8069 0 -74.5627 0 -4.46525 6.73045 -0.262701 1.84689 -1.9617 -18.0769 10.2313 -7.14421 -68.3789 -0 -0 65.5256 3.71257e-05 -8.07427 -14.4543 -177.972 1.8232e-07 -0.387401 -0.281072 8.12026 -18.6377 -0 -0 68.7133 4.55049e-07 11.1605 11.002 2.15632 -3.34882e-06 -37.8125 
-19.566 73.531 -3.8049 -0.00954064 86.264 27.6406 0 -0 0 16.7464 -9.248 14.4786 20.809 -11.7247 -0.000101417 53.1457 -8.13673 2.19559 -0 78.285 -0 -9.25317 3.91594 -0.317008 -14.7127 15.6387 -9.90102e-05 -55.7119 7.33367 15.1234 -8.88866e-07 -73.333 1.19395e-06 -4.29193 6.67874 -0.250502 2.13546 -2.42406 -17.8963 10.188 -7.22255 -67.8378 -0 -0 65.4974 -2.45062e-05 -8.21408 -15.0982 -177.847 2.64984e-07 -0.561706 -0.334568 8.10777 -20.288 -0 -0 70.4784 -1.83214e-05 12.5026 9.82166 2.16618 -3.06074e-06 -36.8792 
-18.803 73.684 -3.6685 1.39636 86.3399 29.1884 0 -0 0 16.6012 -8.98658 14.7786 20.8719 -11.4638 -8.91503e-05 53.2993 -7.43475 2.0016 -0 78.2866 -0 -9.52371 3.87804 -0.323197 -14.7586 15.5357 -7.49081e-05 -56.1852 7.56598 15.442 0 -72.1402 0 -4.14792 6.64991 -0.241109 2.39361 -2.92263 -17.6711 10.1238 -7.30968 -67.3043 -0 -0 65.436 -3.0345e-06 -8.35395 -15.698 -177.725 3.31743e-08 -0.620395 -0.426972 8.09429 -22.0461 -0 -0 72.2251 -2.45988e-05 13.7957 8.61714 2.107 -5.19638e-06 -36.061 
-18.057 73.847 -3.5388 3.09677 86.4134 31.0366 0 -0 0 16.4272 -8.6879 15.0653 20.8827 -11.218 -1.62468e-05 53.4708 -6.75553 1.84624 -2.78768e-06 78.324 -2.94474e-06 -9.76812 3.84193 -0.3284 -14.8037 15.4385 -2.05427e-06 -56.632 7.79688 15.7615 -7.61283e-07 -70.9964 1.06734e-06 -4.03157 6.64161 -0.233996 2.60706 -3.44355 -17.4118 10.0362 -7.39388 -66.7858 -0 -0 65.347 4.61175e-05 -8.49749 -16.2414 -177.607 2.88151e-07 -0.535802 -0.557987 8.07889 -23.9051 -0 -0 73.9326 2.9338e-05 14.9973 7.40685 1.97789 -1.49207e-05 -35.1465 
